<svg width="1440" height="147" viewBox="0 0 1440 147" fill="none" xmlns="http://www.w3.org/2000/svg">
<path opacity="0.56" d="M-5 13.9785L164.182 128.667C167.086 130.636 170.933 130.483 173.672 128.29L310.86 18.4088C314.017 15.88 318.565 16.1059 321.457 18.9351L431.911 127.022C434.802 129.851 439.35 130.077 442.508 127.548L578.4 18.7056C581.712 16.0529 586.519 16.4475 589.354 19.6048L685.16 126.304C688.013 129.481 692.857 129.858 696.166 127.161L829.817 18.2487C832.843 15.7831 837.206 15.8608 840.142 18.4325L964.851 127.67C967.713 130.177 971.944 130.322 974.971 128.016L1119.86 17.6363C1122.7 15.4713 1126.64 15.453 1129.5 17.5914L1277.79 128.395C1280.63 130.519 1284.53 130.516 1287.37 128.387L1321.94 102.479L1361.29 72.9785L1440 13.9785" stroke="#F3F7F3" stroke-opacity="0.88" stroke-width="32"/>
</svg>
