<svg width="1440" height="147" viewBox="0 0 1440 147" fill="none" xmlns="http://www.w3.org/2000/svg">
<path d="M4 13.9684L172.691 128.642C175.598 130.619 179.456 130.465 182.198 128.263L318.961 18.4184C322.121 15.8801 326.681 16.1066 329.574 18.9456L439.681 126.991C442.574 129.83 447.133 130.057 450.293 127.518L585.759 18.7164C589.074 16.054 593.892 16.4496 596.728 19.617L692.229 126.272C695.083 129.459 699.939 129.837 703.251 127.13L836.483 18.2576C839.512 15.7826 843.886 15.8605 846.825 18.4418L971.145 127.642C974.01 130.158 978.252 130.303 981.281 127.988L1125.73 17.6427C1128.57 15.4692 1132.51 15.4508 1135.38 17.5978L1283.21 128.368C1286.06 130.501 1289.98 130.498 1292.82 128.361L1445 13.9684" stroke="#076D02" stroke-opacity="0.04" stroke-width="32"/>
</svg>
